# xmcd
#
# Track frame offsets:
#	150
#	15530
#	31390
#	49125
#	78250
#	98415
#	119302
#	138862
#	161407
#	177687
#	198542
#	215382
#	243397
#	258905
#
# Disc length: 3708 seconds
#
# Revision: 0
# Processed by: cddbd v1.4PL0 Copyright (c) Steve Scherf et al.
# Submitted via: audiograbber 1.81.02
#
DISCID=b40e7a0e
DTITLE=Mick Clarke - Premium Rockin' Blues
DYEAR=1998
DGENRE=Blues
TTITLE0=Swear to Tell the Truth
TTITLE1=Walking in the Dark
TTITLE2=Bear with Me
TTITLE3=GYPSY WOMAN
TTITLE4=New Star over Texas
TTITLE5=Talking with the Blues
TTITLE6=CRY TO ME
TTITLE7=Cool Night Air
TTITLE8=Celebration
TTITLE9=JOURNEY
TTITLE10=Blue Eyed Blues
TTITLE11=Mother Earth
TTITLE12=All My Love
TTITLE13=ROLL AGAIN
EXTD=
EXTT0=
EXTT1=
EXTT2=
EXTT3=
EXTT4=
EXTT5=
EXTT6=
EXTT7=
EXTT8=
EXTT9=
EXTT10=
EXTT11=
EXTT12=
EXTT13=
PLAYORDER=
